<svg xmlns="http://www.w3.org/2000/svg" viewBox="0 0 64 64" width="64" height="64" aria-hidden="true">
  <defs>
    <linearGradient id="g-static" x1="0" x2="1">
      <stop offset="0" stop-color="#7b61ff"/>
      <stop offset="1" stop-color="#3ec6ff"/>
    </linearGradient>
  </defs>
  <rect width="64" height="64" rx="8" fill="transparent"/>

  <!-- Antenna arms from top-center -->
  <line x1="32" y1="10" x2="22" y2="1" stroke="#ffffff" stroke-width="2" stroke-linecap="round" opacity="0.92"/>
  <line x1="32" y1="10" x2="42" y2="1" stroke="#ffffff" stroke-width="2" stroke-linecap="round" opacity="0.92"/>

  <!-- TV outer body -->
  <rect x="6" y="10" width="52" height="34" rx="6" fill="url(#g-static)"/>

  <!-- Screen (dark inset) -->
  <rect x="11" y="14" width="42" height="22" rx="3" fill="rgba(8,10,20,0.5)"/>

  <!-- Static zig-zag noise lines on screen -->
  <g fill="none" stroke="#ffffff" stroke-width="1.8" stroke-linecap="round" stroke-linejoin="round" opacity="0.82">
    <path d="M13 20 L17 24 L21 20 L25 24 L29 20 L33 24 L37 20 L41 24 L45 20 L49 24"/>
    <path d="M13 29 L17 33 L21 29 L25 33 L29 29 L33 33 L37 29 L41 33 L45 29 L49 33"/>
  </g>

  <!-- Control knobs below screen (inside body) -->
  <circle cx="20" cy="41" r="2.2" fill="rgba(255,255,255,0.55)"/>
  <circle cx="32" cy="41" r="2.2" fill="rgba(255,255,255,0.25)"/>
  <circle cx="44" cy="41" r="2.2" fill="rgba(255,255,255,0.15)"/>

  <!-- Stand neck -->
  <rect x="27" y="44" width="10" height="5" rx="2" fill="url(#g-static)"/>
  <!-- Stand base -->
  <rect x="17" y="49" width="30" height="5" rx="3" fill="url(#g-static)"/>
</svg>
